<svg width="17" height="20" viewBox="0 0 17 20" fill="none" xmlns="http://www.w3.org/2000/svg">
<path d="M16.7389 18.5553C16.2875 15.8149 15.2905 14.1394 13.6961 13.4418C11.5 12.4802 8.91444 13.7117 6.41299 14.902C5.83187 15.1793 4.913 15.6158 4.1077 15.9182C4.00738 15.9557 3.89811 15.9621 3.79407 15.9367C3.69004 15.9113 3.59605 15.8552 3.52432 15.7757C3.45259 15.6961 3.40643 15.5969 3.39184 15.4908C3.37725 15.3847 3.39491 15.2767 3.44251 15.1807C4.25519 13.5495 5.94987 11.0362 8.07227 8.8386C9.57883 7.28768 11.2862 5.94538 13.1489 4.84748L13.1651 9.99936C13.1675 10.4556 13.3509 10.8922 13.675 11.2133C13.9991 11.5344 14.4375 11.7137 14.8937 11.7117H15.5693C15.6394 11.7113 15.7087 11.6972 15.7734 11.67C15.838 11.6428 15.8966 11.6031 15.9459 11.5533C15.9952 11.5034 16.0342 11.4443 16.0607 11.3794C16.0872 11.3145 16.1006 11.245 16.1002 11.1749L16.0619 1.25607C16.0611 1.11497 16.0045 0.979927 15.9045 0.880434C15.8044 0.780942 15.6691 0.725096 15.528 0.725098H5.02214C4.95146 0.725288 4.88151 0.739473 4.81634 0.766834C4.75117 0.794196 4.69206 0.834192 4.64242 0.884514C4.59278 0.934837 4.5536 0.994491 4.52713 1.06003C4.50067 1.12558 4.48745 1.19571 4.48822 1.26639V1.77671C4.4894 2.27586 4.6885 2.75417 5.04187 3.10671C5.39524 3.45924 5.87401 3.65723 6.37317 3.65723H9.61798C8.30643 4.59403 7.08308 5.64854 5.96314 6.80764C4.28424 8.56287 2.80066 10.495 1.5384 12.5701C0.482357 14.3489 -0.765421 16.8813 0.60035 18.3459C0.7564 18.511 0.937597 18.6504 1.13722 18.7589C2.96611 19.7913 5.25076 18.6999 7.67109 17.548C9.39969 16.725 11.5501 15.7014 12.5221 16.1262C12.9646 16.3223 13.3554 16.9831 13.6297 18.0008C13.7016 18.3052 13.8623 18.5814 14.0914 18.7943C14.5073 19.1969 15.087 19.2736 15.5132 19.2751L16.2802 19.1733C16.3514 19.164 16.42 19.1404 16.4819 19.1041C16.5438 19.0677 16.5977 19.0192 16.6405 18.9616C16.6833 18.9039 16.7141 18.8382 16.731 18.7684C16.7479 18.6987 16.7506 18.6262 16.7389 18.5553Z" fill="#440066"/>
</svg>
