<svg width="180" height="50" viewBox="0 0 186 40" fill="none" xmlns="http://www.w3.org/2000/svg"><path d="M0 1.16721C0.162116 1.20324 2.73977 1.72561 5.37686 6.67557C9.65673 15.084 9.93413 15.7325 20.8265 15.2749C28.0749 14.9687 29.1665 17.93 30.3734 18.7875C34.5956 13.6249 28.5199 4.4996 19.0397 1.83729C5.83618 -1.86076 0 1.16721 0 1.16721Z" fill="#556BF6"></path><path d="M3.673 37.4542C3.18665 36.4221 23.8367 18.3317 30.0205 19.9367C38.1551 22.0442 33.5222 34.5379 27.9688 38C25.0327 39.8301 5.6292 41.6224 3.673 37.4542Z" fill="#FDB62F"></path><path d="M57.3742 39.4695H44.415L50.8954 2.29138H63.8545C73.0429 2.29138 77.1335 5.42544 77.1335 10.6832C77.1335 15.941 73.4674 19.3934 67.6268 20.4545C73.0968 21.3049 75.4865 23.5301 75.5388 27.6822C75.6449 36.1232 68.5279 39.4695 57.3742 39.4695ZM61.8338 10.2511H60.1361L58.8612 17.4219H60.7205C64.2251 17.4219 66.1904 15.9871 66.1904 13.0668C66.1904 11.2138 64.8633 10.2572 61.8354 10.2572L61.8338 10.2511ZM60.2422 24.3282H57.6925L56.4177 31.4975H59.1273C62.7919 31.4975 64.4912 30.0104 64.4912 27.2485C64.4912 25.2878 63.2686 24.3282 60.2422 24.3282Z" fill="#FFFFFF"></path><path d="M85.3195 39.4695H75.0161L82.1331 2.29138H92.4364L85.3195 39.4695Z" fill="#FFFFFF"></path><path d="M114.421 39.4695H105.711L105.657 35.5912C103.215 38.7252 100.825 40.0001 97.0005 40.0001C92.2209 40.0001 88.7686 36.6538 88.7686 29.749C88.7686 19.4457 94.3447 10.8954 104.916 10.8954C107.167 10.8899 109.4 11.304 111.5 12.1165L119.414 11.3199L114.421 39.4695ZM99.3902 26.8287C99.3902 29.6967 100.453 30.8655 102.258 30.8655C103.745 30.8655 104.86 30.175 106.029 28.8463L107.682 19.6056C106.913 19.2688 106.078 19.1055 105.239 19.1273C101.249 19.1273 99.3902 23.4301 99.3902 26.8287Z" fill="#FFFFFF"></path><path d="M143.513 39.4695H134.809L134.755 35.5911C132.313 38.7252 129.924 40.0001 126.099 40.0001C121.32 40.0001 117.867 36.6538 117.867 29.749C117.867 19.4457 123.443 10.8954 134.014 10.8954C136.266 10.8902 138.5 11.3042 140.601 12.1165L148.513 11.3199L143.513 39.4695ZM128.483 26.8287C128.483 29.6967 129.545 30.8655 131.351 30.8655C132.838 30.8655 133.953 30.175 135.121 28.8463L136.768 19.6056C135.999 19.2688 135.165 19.1055 134.325 19.1273C130.348 19.1273 128.489 23.4301 128.489 26.8287H128.483Z" fill="#FFFFFF"></path><path d="M157.264 8.34571C154.296 8.34571 152.489 6.75407 152.489 4.17362C152.489 1.59317 154.296 0 157.264 0C160.186 0 161.996 1.59164 161.996 4.17362C161.996 6.75561 160.189 8.34571 157.264 8.34571Z" fill="#FDB62F"></path><path d="M146.701 39.4695L151.693 11.3199H161.996L157.003 39.4695H146.701Z" fill="#FFFFFF"></path><path d="M181.857 39.4695H159.391L159.019 34.1579L171.766 19.5487H161.887L163.32 11.3168H185.256L185.628 16.6284L172.933 31.2868H183.29L181.857 39.4695Z" fill="#FFFFFF"></path></svg>