<svg width="400" height="96" viewBox="0 0 400 96" fill="none" xmlns="http://www.w3.org/2000/svg">
<g clip-path="url(#clip0_5775_62368)">
<path d="M68.0144 85.297L33.6757 40.5395L72.6538 0.164236H56.7442L13.9281 45.1156L12.5943 53.7481V0.164236H0V94.4615H12.5943V62.4536L25.0583 49.5706L55.8167 89.414C57.9382 92.1604 59.4392 93.8429 60.3244 94.4615H75.7044V93.931C74.5544 93.1336 71.9911 90.2565 68.0144 85.297Z" fill="white"/>
<path d="M187.229 28.7291V31.851C187.263 31.3574 187.279 30.886 187.279 30.4379C187.279 29.8592 187.263 29.2901 187.229 28.7291Z" fill="white"/>
<path d="M269.602 71.0846C268.629 75.1589 266.639 78.6118 263.637 81.4436C260.629 84.2793 256.477 85.6939 251.173 85.6939C245.869 85.6939 241.183 83.6361 237.385 79.5177C233.714 75.5423 231.569 70.0632 230.95 63.0746L224.662 62.2346H241.229L279.148 61.9214C279.766 61.0373 280.075 58.3349 280.075 53.8194C280.075 49.3036 279.214 44.4788 277.491 39.874C275.766 35.2716 272.629 31.3527 268.077 28.1196C263.525 24.8892 257.316 23.2726 249.45 23.2726C238.4 23.2726 230.466 26.5924 225.652 33.2331C220.833 39.874 218.425 48.4639 218.425 58.9988C218.425 66.7915 219.796 73.4324 222.535 78.9211C225.275 84.4114 229.119 88.5956 234.071 91.4714C239.019 94.3497 244.721 95.7877 251.173 95.7877C259.304 95.7877 265.889 93.7959 270.927 89.8108C275.966 85.8272 279.102 80.6476 280.341 74.2722L269.602 71.0846ZM236.391 38.2134C239.262 34.983 243.616 33.3664 249.45 33.3664C253.602 33.3664 257.139 34.2751 260.056 36.0882C262.973 37.9041 265.16 40.2519 266.619 43.1275C268.077 46.0061 268.806 48.9505 268.806 51.9595L231.154 52.2262C231.771 46.116 233.516 41.4465 236.391 38.2134Z" fill="white"/>
<path d="M268.967 0.164236V10.9234H329.765L320.681 12.5853C312.054 19.5642 305.246 27.6428 300.256 36.8212C294.865 46.7391 291.196 56.2568 289.254 65.376C287.308 74.4966 286.336 82.6865 286.336 89.946C286.336 92.1604 286.379 93.6643 286.469 94.4615H299.063C298.975 93.1336 298.931 91.0977 298.931 88.3528C298.931 74.9833 301.494 61.7896 306.621 48.7734C311.746 35.7585 321.338 23.141 335.392 10.9234V0.164236H268.967Z" fill="white"/>
<path d="M394.719 53.1289C391.273 49.6333 387.163 47.2648 382.39 46.0249C386.367 44.6958 389.946 42.1514 393.129 38.3877C396.311 34.6254 397.902 30.133 397.902 24.9068C397.902 20.0393 396.663 15.6996 394.19 11.8919C391.715 8.08563 388.156 5.1412 383.517 3.06005C378.877 0.980252 373.461 -0.0616999 367.275 -0.0616999C361.088 -0.0616999 355.717 0.980252 351.167 3.06005C346.613 5.1412 343.1 8.08563 340.625 11.8919C338.15 15.6996 336.915 20.0393 336.915 24.9068C336.915 30.2196 338.505 34.7573 341.686 38.5209C344.869 42.2847 348.448 44.7851 352.425 46.0249C347.565 47.3529 343.477 49.7433 340.163 53.1964C336.848 56.6494 335.19 61.165 335.19 66.7432C335.19 75.4212 338.173 82.2378 344.14 87.196C350.107 92.1556 357.863 94.6341 367.409 94.6341C373.684 94.6341 379.273 93.5276 384.179 91.3131C389.086 89.1014 392.929 85.9136 395.715 81.7513C398.498 77.5904 399.89 72.5867 399.89 66.7432C399.89 60.8997 398.167 56.6288 394.719 53.1289ZM348.846 24.9068C348.846 20.3912 350.523 16.7622 353.884 14.0171C357.242 11.2734 361.707 9.89875 367.275 9.89875C372.842 9.89875 377.463 11.2734 380.865 14.0171C384.267 16.7622 385.969 20.3912 385.969 24.9068C385.969 30.2196 384.377 34.6254 381.196 38.1223C378.015 41.6206 373.373 43.3678 367.275 43.3678C361.175 43.3678 356.69 41.6206 353.554 38.1223C350.415 34.6254 348.846 30.2196 348.846 24.9068ZM381.992 79.6921C378.015 83.1012 373.152 84.8056 367.409 84.8056C361.663 84.8056 356.844 83.1012 352.957 79.6921C349.067 76.2843 347.123 71.9681 347.123 66.7432C347.123 61.5183 349.023 57.1593 352.823 54.1929C356.623 51.2265 361.486 49.7433 367.409 49.7433C373.329 49.7433 378.234 51.2265 382.125 54.1929C386.013 57.1593 387.959 61.3436 387.959 66.7432C387.959 72.1428 385.969 76.2843 381.992 79.6921Z" fill="white"/>
<path d="M163.493 60.0495C161.69 55.2796 159.092 51.0691 155.701 47.4182C152.308 43.7685 148.179 40.86 143.309 38.6908C138.437 36.5231 132.936 35.4385 126.803 35.4385C121.176 35.4385 115.817 36.3594 110.73 38.2028C105.644 40.0463 101.207 42.6854 97.4186 46.1178C93.6313 49.5517 90.6165 53.7442 88.3811 58.6943C86.143 63.6456 85.0259 69.2292 85.0259 75.4452C85.0259 81.2998 86.0894 86.6662 88.2192 91.5461C88.6513 92.5372 89.1165 93.5007 89.6134 94.4342H101.55C101.028 93.0101 100.57 91.5227 100.178 89.9736C99.024 85.4194 98.4463 80.6866 98.4463 75.771C98.4463 70.8554 98.9692 66.4291 100.016 61.8378C101.062 57.2495 102.684 53.1475 104.886 49.5323C107.087 45.92 109.9 42.974 113.328 40.6963C116.755 38.4199 120.814 37.2804 125.504 37.2804C130.194 37.2804 134.126 38.4199 137.518 40.6963C140.909 42.974 143.742 45.9377 146.015 49.5859C148.287 53.2383 149.982 57.3031 151.102 61.7844C152.219 66.2655 152.778 70.7124 152.778 75.1194C152.778 79.5265 152.219 84.2278 151.102 88.7805C150.617 90.7501 150.03 92.6349 149.336 94.4342H161.288C161.886 93.3455 162.44 92.2198 162.952 91.0582C165.118 86.1425 166.2 80.7939 166.2 75.0109C166.2 69.8079 165.297 64.8195 163.493 60.0495Z" fill="white"/>
<path d="M149.567 4.48598C148.658 6.84895 147.569 9.0662 146.3 11.1378C144.063 14.7887 141.267 17.7703 137.912 20.0824C134.557 22.3958 130.606 23.552 126.06 23.552C121.513 23.552 117.527 22.5045 114.101 20.4082C110.673 18.3119 107.823 15.5296 105.55 12.0587C104.052 9.77 102.795 7.2462 101.782 4.48598H89.8438C91.7896 8.15071 94.2306 11.381 97.1619 14.1729C100.842 17.6795 105.134 20.3903 110.041 22.3052C114.947 24.22 120.143 25.1781 125.627 25.1781C131.112 25.1781 136.432 24.2021 141.375 22.2501C146.317 20.2982 150.646 17.5173 154.363 13.9021C157.201 11.1432 159.586 8.00362 161.519 4.48462H149.569L149.567 4.48598Z" fill="white"/>
<path d="M141.302 89.9353C141.302 91.5024 141.073 93.0159 140.645 94.444H110.629C110.201 93.0159 109.972 91.5024 109.972 89.9353C109.972 81.2697 116.985 74.2427 125.637 74.2427C134.289 74.2427 141.302 81.2697 141.302 89.9353Z" fill="white"/>
<path d="M214.581 25.9164V39.3314C213.077 38.0913 211.642 37.1622 210.273 36.5422C208.902 35.9236 207.068 35.6116 204.771 35.6116C199.203 35.6116 194.847 37.892 191.712 42.4516C188.573 47.0127 187.091 53.8074 187.27 62.8387V94.448H175.337V25.3857H187.005C187.183 26.458 187.301 27.5714 187.36 28.7234V39.8454C188.948 34.9655 191.237 31.1866 194.231 28.5061C197.545 25.5412 201.5 24.058 206.097 24.058C208.305 24.058 210.14 24.2558 211.598 24.6544C213.056 25.053 214.052 25.4752 214.581 25.9164Z" fill="white"/>
</g>
<defs>
<clipPath id="clip0_5775_62368">
<rect width="400" height="96" fill="white"/>
</clipPath>
</defs>
</svg>
