<svg width="102" height="24" viewBox="0 0 102 24" fill="none" xmlns="http://www.w3.org/2000/svg">
<g clip-path="url(#clip0_239_8524)">
<path d="M38.379 4.50995C37.4499 3.96497 36.3916 3.67959 35.3145 3.68364C34.2464 3.68563 33.1966 3.9609 32.265 4.48325C31.3334 5.0056 30.551 5.75765 29.9921 6.66785C29.4443 7.5664 29.1572 8.59968 29.1632 9.65206C29.1711 13.2073 29.1785 16.763 29.1855 20.3192C29.6928 20.3419 30.1968 20.2275 30.6444 19.9878C31.092 19.7481 31.4667 19.3921 31.729 18.9573V14.8244C32.7713 15.5803 34.0269 15.9854 35.3145 15.981C36.4011 15.9904 37.4692 15.7 38.4013 15.1415C39.3308 14.6057 40.1024 13.8341 40.6382 12.9047C41.1868 11.9733 41.4728 10.9106 41.4658 9.82969C41.4714 8.74657 41.1894 7.68138 40.6487 6.74285C40.0986 5.8143 39.3164 5.04481 38.379 4.50995ZM38.4211 11.6244C38.0935 12.1633 37.6368 12.6119 37.0921 12.9297C36.5535 13.2509 35.9376 13.4192 35.3105 13.4165C34.6772 13.426 34.0546 13.2529 33.5171 12.9178C32.9757 12.604 32.5257 12.1541 32.2119 11.6126C31.8909 11.0739 31.7226 10.458 31.725 9.83101C31.7158 9.19774 31.8889 8.57518 32.2237 8.03758C32.5376 7.49652 32.9876 7.04699 33.529 6.73364C34.0675 6.41225 34.6834 6.2435 35.3105 6.24548C35.9408 6.23977 36.5608 6.40433 37.1053 6.72179C37.6441 7.04882 38.0927 7.50516 38.4105 8.04943C38.7319 8.58798 38.9007 9.20385 38.8987 9.83101C38.9038 10.4609 38.7388 11.0805 38.4211 11.6244Z" fill="white"/>
<path d="M63.624 5.33096V10.581C63.624 11.4678 63.3201 12.1599 62.703 12.6665C62.3241 12.9869 61.8759 13.2149 61.3938 13.3323C61.303 13.352 61.2056 13.3665 61.1161 13.3796C61.0231 13.4022 60.9277 13.4141 60.8319 13.4152C60.8066 13.4185 60.7809 13.4185 60.7556 13.4152C60.6962 13.4264 60.6357 13.4308 60.5754 13.4283H60.4859C60.4299 13.4306 60.3738 13.4261 60.3188 13.4152C60.2841 13.423 60.2479 13.4202 60.2148 13.4073C60.1262 13.4128 60.0372 13.4035 59.9517 13.3796C59.9306 13.3875 59.9175 13.3796 59.8964 13.3796C59.3263 13.2908 58.7917 13.0463 58.3517 12.6731C57.7411 12.1599 57.4372 11.4744 57.4372 10.5875V5.27833C57.4362 4.85615 57.2682 4.45153 56.9699 4.15276C56.6716 3.85399 56.2673 3.68533 55.8451 3.68359H54.9069V10.581C54.8907 11.5863 55.1648 12.5749 55.6964 13.4283C56.217 14.2344 56.9385 14.891 57.7898 15.3336C58.2849 15.5907 58.8145 15.7751 59.3622 15.881V18.577C59.3622 19.038 59.5453 19.4801 59.8713 19.8061C60.1973 20.132 60.6394 20.3152 61.1004 20.3152H61.899V15.8415C62.3789 15.7344 62.8426 15.5645 63.278 15.3362C64.1289 14.8935 64.8499 14.2369 65.3701 13.431C65.9017 12.5775 66.1758 11.5889 66.1596 10.5836V3.68359H65.274C64.837 3.68394 64.4179 3.85753 64.1086 4.16632C63.7993 4.47511 63.6251 4.89392 63.624 5.33096Z" fill="white"/>
<path d="M75.6582 4.32545C74.9579 3.97162 74.1946 3.75967 73.4121 3.70176C72.1693 3.59555 70.9239 3.8744 69.845 4.50045C68.9086 5.04352 68.1302 5.82186 67.5871 6.75834C67.0384 7.68977 66.752 8.75232 66.7582 9.83334C66.7458 10.9123 67.0352 11.9733 67.5937 12.8965C68.0193 13.6422 68.597 14.2901 69.2894 14.798C69.9817 15.3059 70.7731 15.6624 71.6122 15.8445C72.4514 16.0265 73.3194 16.03 74.1599 15.8547C75.0005 15.6793 75.7947 15.3291 76.4911 14.8268V15.9149H77.0174C77.5526 15.9153 78.0662 15.7034 78.4455 15.3258C78.8248 14.9482 79.039 14.4357 79.0411 13.9004L79.0556 9.65176C79.061 8.5947 78.7702 7.55725 78.2161 6.65702C77.5994 5.65495 76.7129 4.84689 75.6582 4.32545ZM76.02 11.6254C75.6728 12.1966 75.1813 12.6663 74.595 12.9873C74.0956 13.2642 73.5357 13.4137 72.9648 13.4228C72.3116 13.4429 71.667 13.2694 71.1121 12.9241C70.5354 12.5891 70.0626 12.1009 69.7464 11.5136C69.4706 11.0094 69.3237 10.4449 69.3187 9.87018C69.3018 9.22356 69.4752 8.5862 69.8174 8.03729C70.1511 7.4643 70.6358 6.99409 71.2187 6.67808C71.7539 6.38699 72.3547 6.23813 72.9639 6.24573C73.573 6.25333 74.17 6.41715 74.6977 6.7215C75.2659 7.06795 75.7333 7.55751 76.0529 8.14123C76.3275 8.63492 76.477 9.1883 76.4885 9.75308C76.5093 10.4093 76.3452 11.0581 76.0148 11.6254H76.02Z" fill="white"/>
<path d="M100.801 6.65702C100.183 5.65416 99.294 4.84605 98.2369 4.32545C97.5366 3.97162 96.7733 3.75967 95.9909 3.70176C94.748 3.59555 93.5026 3.8744 92.4238 4.50045C91.4873 5.04352 90.7089 5.82186 90.1659 6.75834C89.619 7.6903 89.3344 8.75281 89.3422 9.83334C89.3298 10.9123 89.6192 11.9733 90.1777 12.8965C90.6032 13.6428 91.1811 14.2912 91.8738 14.7995C92.5664 15.3078 93.3583 15.6646 94.1979 15.8466C95.0375 16.0287 95.9061 16.032 96.747 15.8563C97.588 15.6806 98.3826 15.3298 99.079 14.8268V15.9149H99.6053C100.14 15.9149 100.654 15.7029 101.033 15.3254C101.412 14.9478 101.626 14.4354 101.628 13.9004L101.642 9.65176C101.646 8.59468 101.355 7.55745 100.801 6.65702ZM98.5988 11.6254C98.2515 12.1966 97.7601 12.6663 97.1738 12.9873C96.6759 13.2633 96.1179 13.4129 95.5488 13.4228C94.8952 13.4427 94.2503 13.2692 93.6948 12.9241C93.119 12.5883 92.6469 12.1003 92.3303 11.5136C92.0546 11.0094 91.9077 10.4449 91.9027 9.87018C91.8864 9.22363 92.0598 8.58645 92.4014 8.03729C92.7356 7.46425 93.2208 6.99407 93.804 6.67808C94.3388 6.38662 94.9395 6.23753 95.5485 6.24513C96.1575 6.25274 96.7543 6.41677 97.2817 6.7215C97.85 7.06704 98.3178 7.55568 98.6382 8.1386C98.9315 8.67384 99.0819 9.27561 99.075 9.88588C99.0681 10.4962 98.9041 11.0944 98.5988 11.6228V11.6254Z" fill="white"/>
<path d="M50.9354 4.3255C50.2335 3.97117 49.4684 3.75921 48.6841 3.70182C47.4417 3.59545 46.1967 3.87431 45.1183 4.5005C44.1812 5.04315 43.4023 5.82156 42.8591 6.75839C42.3108 7.68993 42.0248 8.75249 42.0315 9.8334C42.0215 10.9131 42.3136 11.9741 42.8749 12.8966C43.3005 13.6423 43.8782 14.2902 44.5706 14.7981C45.2629 15.3059 46.0543 15.6625 46.8934 15.8445C47.7325 16.0266 48.6006 16.0301 49.4411 15.8547C50.2817 15.6794 51.0759 15.3292 51.7723 14.8268V15.915H52.2986C52.8337 15.9153 53.3471 15.7035 53.7262 15.3258C54.1053 14.9482 54.3192 14.4356 54.321 13.9005L54.342 9.65182C54.3465 8.59487 54.0558 7.55767 53.5026 6.65708C52.8831 5.65399 51.9933 4.84588 50.9354 4.3255ZM51.296 11.6255C50.9487 12.1976 50.4562 12.6675 49.8683 12.9873C49.3718 13.263 48.8151 13.4125 48.2473 13.4229C47.5933 13.4429 46.9479 13.2694 46.392 12.9242C45.8162 12.5884 45.3441 12.1003 45.0276 11.5137C44.7536 11.009 44.6086 10.4445 44.6052 9.87024C44.5886 9.22348 44.7625 8.58611 45.1052 8.03734C45.4385 7.46406 45.9233 6.99376 46.5065 6.67813C47.0416 6.38705 47.6425 6.23818 48.2516 6.24578C48.8608 6.25338 49.4578 6.4172 49.9854 6.72155C50.5532 7.06751 51.0204 7.55608 51.3407 8.13866C51.6347 8.67366 51.7856 9.27553 51.7786 9.88595C51.7717 10.4964 51.6073 11.0947 51.3012 11.6229L51.296 11.6255Z" fill="white"/>
<path d="M87.3005 13.2586H83.5728L89.0255 6.07438C89.3321 5.6701 89.498 5.17655 89.4978 4.66912V3.83623C89.4972 3.7955 89.4805 3.75669 89.4514 3.72813C89.4224 3.69958 89.3833 3.68359 89.3426 3.68359H80.2557C80.2146 3.68359 80.1751 3.69995 80.1459 3.72907C80.1168 3.75819 80.1005 3.79768 80.1005 3.83886C80.1005 4.16416 80.1646 4.48628 80.2891 4.78681C80.4136 5.08733 80.5961 5.36038 80.8262 5.59034C81.0563 5.82031 81.3295 6.00268 81.6301 6.12705C81.9307 6.25142 82.2528 6.31535 82.5781 6.31517H85.4728L80.3413 13.0454C79.9475 13.5682 79.7354 14.2054 79.7373 14.8599V15.8033C79.7373 15.8445 79.7537 15.884 79.7828 15.9131C79.8119 15.9422 79.8514 15.9586 79.8926 15.9586H89.5689C89.5894 15.9588 89.6097 15.9549 89.6287 15.9472C89.6477 15.9394 89.665 15.928 89.6795 15.9136C89.6941 15.8992 89.7056 15.882 89.7135 15.8631C89.7214 15.8441 89.7255 15.8238 89.7255 15.8033V15.6823C89.7251 15.0394 89.4695 14.4229 89.0147 13.9684C88.56 13.5139 87.9434 13.2586 87.3005 13.2586Z" fill="white"/>
<path d="M12 24C9.62657 24 7.30645 23.2962 5.33303 21.9776C3.35961 20.6589 1.82154 18.7847 0.913325 16.5919C0.0051122 14.3991 -0.232451 11.9862 0.230678 9.65844C0.693808 7.33063 1.83683 5.19244 3.51519 3.51426C5.19355 1.83608 7.33187 0.693296 9.65973 0.230422C11.9876 -0.232452 14.4004 0.00537534 16.5931 0.913829C18.7858 1.82228 20.6599 3.36056 21.9783 5.33412C23.2967 7.30768 24.0003 9.62789 24 12.0013C23.9997 15.1837 22.7352 18.2356 20.4848 20.4858C18.2344 22.7359 15.1824 24 12 24Z" fill="#55FF5B"/>
<path d="M19.4632 19.6331C19.0606 17.1884 18.1711 15.6937 16.7487 15.0713C14.7895 14.2134 12.483 15.3121 10.2514 16.3739C9.73296 16.6213 8.91322 17.0108 8.1948 17.2805C8.10531 17.314 8.00782 17.3197 7.91501 17.297C7.8222 17.2744 7.73835 17.2243 7.67436 17.1534C7.61037 17.0824 7.56919 16.9939 7.55618 16.8992C7.54316 16.8046 7.55891 16.7082 7.60138 16.6226C8.32638 15.1674 9.83822 12.9252 11.7316 10.9647C13.0757 9.58112 14.5988 8.38365 16.2606 7.40419L16.2751 12.0002C16.2772 12.4073 16.4408 12.7968 16.7299 13.0833C17.0191 13.3697 17.4101 13.5296 17.8172 13.5279H18.4198C18.4824 13.5275 18.5442 13.5149 18.6019 13.4906C18.6595 13.4664 18.7119 13.431 18.7558 13.3865C18.7998 13.342 18.8346 13.2893 18.8582 13.2314C18.8819 13.1735 18.8938 13.1115 18.8935 13.0489L18.8593 4.20025C18.8586 4.07438 18.8081 3.9539 18.7188 3.86514C18.6296 3.77638 18.5088 3.72656 18.383 3.72656H9.01059C8.94753 3.72673 8.88513 3.73939 8.82699 3.7638C8.76885 3.78821 8.71611 3.82389 8.67183 3.86878C8.62755 3.91367 8.5926 3.96689 8.56899 4.02536C8.54538 4.08383 8.53358 4.1464 8.53427 4.20946V4.66472C8.53532 5.11002 8.71295 5.53672 9.02819 5.85123C9.34343 6.16573 9.77055 6.34235 10.2159 6.34235H13.1106C11.9405 7.17809 10.8492 8.11883 9.85006 9.15288C8.3523 10.7187 7.02877 12.4424 5.9027 14.2937C4.96059 15.8805 3.84743 18.1397 5.06585 19.4463C5.20507 19.5936 5.36672 19.718 5.5448 19.8147C7.17638 20.7358 9.21454 19.7621 11.3737 18.7345C12.9159 18.0002 14.8343 17.0871 15.7014 17.466C16.0961 17.641 16.4448 18.2305 16.6895 19.1384C16.7536 19.41 16.897 19.6564 17.1014 19.8463C17.4724 20.2055 17.9895 20.2739 18.3698 20.2752L19.054 20.1845C19.1175 20.1761 19.1787 20.1551 19.2339 20.1227C19.2892 20.0902 19.3373 20.047 19.3755 19.9955C19.4137 19.9441 19.4411 19.8855 19.4562 19.8233C19.4713 19.761 19.4736 19.6963 19.4632 19.6331Z" fill="#4B006A"/>
</g>
<defs>
<clipPath id="clip0_239_8524">
<rect width="101.639" height="24" fill="white"/>
</clipPath>
</defs>
</svg>
