<svg width="151" height="37" viewBox="0 0 151 37" fill="none" xmlns="http://www.w3.org/2000/svg">
<path fill-rule="evenodd" clip-rule="evenodd" d="M43.1267 16.6933C43.1267 15.1078 43.5231 13.6443 44.3158 12.3027C45.1391 10.9611 46.2672 9.87873 47.7003 9.0555C49.1028 8.29324 50.5968 7.91211 52.1823 7.91211C53.7983 7.91211 55.3076 8.30849 56.7101 9.10123C58.1127 9.92447 59.2408 11.0374 60.0946 12.4399C60.8873 13.8425 61.2837 15.3518 61.2837 16.9677C61.2837 18.6142 60.8721 20.1387 60.0488 21.5413C59.2256 22.9134 58.1279 24.011 56.7558 24.8342C55.3838 25.6575 53.8593 26.0691 52.1823 26.0691C50.2614 26.0691 48.5082 25.4898 46.9227 24.3311V30.4597C46.694 30.7799 46.2824 31.4201 45.5049 31.8775C44.4988 32.4721 43.5383 32.4721 43.1267 32.4721C43.1267 27.2277 43.1267 21.9682 43.1267 16.6933ZM47.6088 19.6204C48.0966 20.4131 48.7369 21.0534 49.5297 21.5413C50.3224 22.0291 51.2066 22.273 52.1823 22.273C53.1275 22.273 54.0117 22.0291 54.835 21.5413C55.6582 21.0534 56.3138 20.4131 56.8016 19.6204C57.259 18.8276 57.4877 17.9434 57.4877 16.9677C57.4877 16.0225 57.2437 15.1536 56.7558 14.3608C56.2985 13.5376 55.6582 12.882 54.835 12.3942C54.0422 11.9063 53.158 11.6624 52.1823 11.6624C51.2676 11.6624 50.3986 11.9063 49.5754 12.3942C48.7522 12.882 48.1119 13.5223 47.6545 14.3151C47.1667 15.1078 46.9227 15.9921 46.9227 16.9677C46.9227 17.9129 47.1514 18.7972 47.6088 19.6204Z" fill="#440066"/>
<path d="M97.7348 7.91211V18.0654C97.7348 19.6661 97.3689 21.0382 96.5914 22.273C95.7987 23.4927 94.762 24.4379 93.4814 25.1087C92.8411 25.444 92.1703 25.688 91.469 25.8404V32.4721H90.2799C88.8621 32.4721 87.7187 31.3287 87.7187 29.9109V25.9319C86.8955 25.7489 86.118 25.4745 85.3862 25.1087C84.1056 24.4379 83.0689 23.4927 82.2762 22.273C81.4987 21.0382 81.1328 19.6661 81.1328 18.0654V7.91211H82.5049C83.8312 7.91211 84.8831 8.96403 84.8831 10.2446V18.0654C84.8831 19.3917 85.3405 20.3979 86.2094 21.1754C86.8802 21.7242 87.6425 22.0749 88.4962 22.2273C88.5267 22.2273 88.5572 22.2273 88.5877 22.2273C88.7097 22.2578 88.8468 22.273 88.9993 22.273C89.0298 22.273 89.0755 22.273 89.1365 22.273C89.228 22.273 89.3042 22.273 89.3652 22.273H89.5024C89.5939 22.273 89.6854 22.273 89.7768 22.273C89.8226 22.273 89.8683 22.273 89.8683 22.273C90.0207 22.273 90.1732 22.2578 90.3256 22.2273C90.4476 22.1968 90.5848 22.1663 90.7373 22.1358C91.4233 21.9529 92.1093 21.6328 92.6581 21.1754C93.5728 20.3979 93.9845 19.3917 93.9845 18.0654V10.3361C93.9845 8.96403 95.0821 7.91211 96.4542 7.91211H97.7348Z" fill="#440066"/>
<path d="M89.1366 22.2732C89.2281 22.3037 89.3348 22.3189 89.4567 22.3189H89.3653C89.3043 22.3189 89.2281 22.3037 89.1366 22.2732Z" fill="#440066"/>
<path d="M90.783 25.9778C90.783 25.9778 90.783 25.993 90.783 26.0235C90.6611 26.0235 90.5544 26.0235 90.4629 26.0235C90.5544 26.0235 90.6611 26.0083 90.783 25.9778Z" fill="#440066"/>
<path d="M89.457 22.3187C89.5485 22.3187 89.6553 22.3034 89.7772 22.2729C89.6857 22.3034 89.5943 22.3187 89.5028 22.3187H89.457Z" fill="#440066"/>
<path fill-rule="evenodd" clip-rule="evenodd" d="M113.01 24.3312C111.394 25.4898 109.626 26.0691 107.705 26.0691C106.089 26.0691 104.579 25.6575 103.177 24.8343C101.774 24.011 100.677 22.8981 99.884 21.4956C99.0303 20.1235 98.6034 18.6143 98.6034 16.9678C98.6034 15.3518 99.015 13.8425 99.8383 12.44C100.662 11.0374 101.774 9.92451 103.177 9.10127C104.762 8.18656 106.516 7.79019 108.437 7.91215C109.58 8.00362 110.723 8.32377 111.775 8.82686C113.391 9.6501 114.657 10.8087 115.571 12.3028C116.395 13.6443 116.806 15.1079 116.806 16.6934L116.76 23.0049C116.76 24.6513 115.434 25.9777 113.788 25.9777H113.01V24.3312ZM112.37 14.4523C111.882 13.5681 111.211 12.8668 110.357 12.3485C109.534 11.8606 108.619 11.632 107.613 11.6625C106.79 11.6625 105.967 11.8911 105.235 12.3028C104.351 12.7906 103.65 13.4461 103.131 14.2694C102.643 15.0926 102.399 16.0073 102.399 17.0135C102.399 17.8367 102.628 18.66 103.04 19.4375C103.528 20.3217 104.198 21.0077 105.052 21.4956C105.875 22.0139 106.79 22.2579 107.796 22.2274C108.62 22.2274 109.443 21.9987 110.174 21.5871C111.059 21.0992 111.76 20.4284 112.278 19.5747C112.797 18.7515 113.041 17.8367 113.01 16.8306C112.964 16.0073 112.781 15.1841 112.37 14.4523Z" fill="#440066"/>
<path fill-rule="evenodd" clip-rule="evenodd" d="M146.351 24.3312C144.735 25.4898 142.967 26.0691 141.046 26.0691C139.43 26.0691 137.921 25.6575 136.518 24.8343C135.116 24.011 134.018 22.8981 133.225 21.4956C132.402 20.1235 131.99 18.6143 131.99 16.9678C131.99 15.3518 132.387 13.8425 133.179 12.44C134.003 11.0374 135.116 9.92451 136.518 9.10127C138.134 8.18656 139.887 7.79019 141.778 7.91215C142.967 8.00362 144.11 8.32377 145.116 8.82686C146.732 9.6501 147.998 10.8087 148.912 12.3028C149.736 13.6443 150.147 15.1079 150.147 16.6934L150.102 23.0049C150.102 24.6513 148.775 25.9777 147.129 25.9777H146.351V24.3312ZM145.711 14.4523C145.223 13.5681 144.552 12.8668 143.699 12.3485C142.875 11.8606 141.961 11.632 140.954 11.6625C140.131 11.6625 139.308 11.8911 138.576 12.3028C137.692 12.7906 137.006 13.4461 136.518 14.2694C136 15.0926 135.756 16.0073 135.786 17.0135C135.786 17.8367 135.969 18.66 136.381 19.4375C136.869 20.3217 137.539 21.0077 138.393 21.4956C139.216 22.0139 140.131 22.2579 141.137 22.2274C142.006 22.2274 142.83 21.9987 143.561 21.5871C144.446 21.0992 145.147 20.4284 145.665 19.5747C146.153 18.7515 146.382 17.8367 146.351 16.8306C146.351 16.0073 146.122 15.1841 145.711 14.4523Z" fill="#440066"/>
<path fill-rule="evenodd" clip-rule="evenodd" d="M76.5141 24.3312C74.8981 25.4898 73.1297 26.0691 71.2088 26.0691C69.5623 26.0691 68.053 25.6575 66.681 24.8343C65.2784 24.011 64.1655 22.8981 63.3423 21.4956C62.519 20.1235 62.1074 18.6143 62.1074 16.9678C62.1074 15.3518 62.519 13.8425 63.3423 12.44C64.1655 11.0374 65.2784 9.92451 66.681 9.10127C68.2665 8.18656 70.0197 7.79019 71.9405 7.91215C73.0839 8.00362 74.2273 8.32377 75.2792 8.82686C76.8647 9.6501 78.1148 10.8087 79.0295 12.3028C79.8833 13.6443 80.3101 15.1079 80.3101 16.6934L80.2644 23.0049C80.2644 24.6513 78.9381 25.9777 77.2916 25.9777H76.5141V24.3312ZM75.8738 14.4523C75.3859 13.5681 74.7151 12.8668 73.8614 12.3485C73.0382 11.8606 72.1235 11.632 71.1173 11.6625C70.294 11.6625 69.4251 11.8911 68.7391 12.3028C67.8548 12.7906 67.1536 13.4461 66.6352 14.2694C66.1474 15.0926 65.9034 16.0073 65.9034 17.0135C65.9034 17.8367 66.1321 18.66 66.5437 19.4375C67.0316 20.3217 67.7024 21.0077 68.5561 21.4956C69.3489 22.0139 70.2636 22.2579 71.3002 22.2274C72.1235 22.2274 72.9467 21.9987 73.6785 21.5871C74.5627 21.0992 75.264 20.4284 75.7823 19.5747C76.2702 18.7515 76.5141 17.8367 76.5141 16.8306C76.4684 16.0073 76.2397 15.1841 75.8738 14.4523Z" fill="#440066"/>
<path d="M127.005 10.7935V11.7996H121.974C119.962 11.7996 118.316 10.1531 118.316 8.14079C118.316 8.00358 118.453 7.91211 118.544 7.91211H131.991C132.128 7.91211 132.219 8.00358 132.219 8.14079V9.32991C132.219 10.1074 131.945 10.8392 131.533 11.4337L122.706 23.0048V22.0444H128.972C130.939 22.0444 132.539 23.6451 132.539 25.6117V25.7947C132.539 25.9319 132.448 26.0234 132.311 26.0234H118.041C117.904 26.0234 117.812 25.9319 117.812 25.7947V24.4226C117.812 23.4164 118.133 22.5017 118.681 21.7242L127.005 10.7935Z" fill="#440066"/>
<path d="M18.4771 37C8.27813 37 0 28.7219 0 18.4771C0 8.27812 8.27813 0 18.4771 0C28.7219 0 37 8.27812 37 18.4771C37 28.7219 28.7219 37 18.4771 37Z" fill="#8CFF73"/>
<path d="M30.0027 30.2769C29.3624 26.4809 27.9903 24.1941 25.795 23.2336C22.7765 21.9073 19.2548 23.5995 15.7789 25.246C15.0014 25.6119 13.7208 26.2064 12.6232 26.6181C12.0286 26.8925 11.434 26.2065 11.7085 25.6119C12.8518 23.3709 15.1844 19.9407 18.0657 16.9221C20.1238 14.8183 22.4563 12.9889 25.0633 11.4339V18.5229C25.109 19.8035 26.1609 20.8554 27.4415 20.8554H28.4019C28.8135 20.8554 29.1337 20.5353 29.1337 20.1236L29.0879 6.49445C29.0879 6.08283 28.7221 5.7627 28.3105 5.7627H13.9038C13.4922 5.7627 13.172 6.08283 13.172 6.49445V7.18048C13.172 8.64402 14.3154 9.78741 15.7332 9.78741H20.2153C18.3859 11.0985 16.7089 12.5468 15.1844 14.1323C12.9434 16.4191 10.6566 19.3919 9.10156 22.0445C7.63802 24.4685 5.94579 27.9444 7.82094 29.9568C8.00388 30.1854 8.23261 30.3684 8.55275 30.5513C11.0682 31.9691 14.2239 30.4599 17.5169 28.8591C19.8951 27.7615 22.8679 26.3437 24.1943 26.9382C24.8346 27.2126 25.3377 28.0816 25.7036 29.4994C25.8408 29.9568 26.0237 30.2769 26.3438 30.5971C26.9384 31.1459 27.7159 31.2374 28.3105 31.2374C28.6763 31.2069 29.027 31.1611 29.3624 31.1001C29.774 31.0544 30.0484 30.6885 30.0027 30.2769Z" fill="#440066"/>
</svg>
